<?xml version="1.0" encoding="UTF-8"?>
<svg id="Layer_1" data-name="Layer 1" xmlns="http://www.w3.org/2000/svg" viewBox="0 0 51.7 330.12">
  <defs>
    <style>
      .cls-1 {
        fill: #addbc3;
        stroke: #acdac2;
        stroke-miterlimit: 10;
        stroke-width: 2px;
      }

      .cls-2 {
        isolation: isolate;
      }

      .cls-3 {
        fill: #abdac1;
        stroke-width: 0px;
      }
    </style>
  </defs>
  <g id="WESHARK" class="cls-2">
    <g class="cls-2">
      <path class="cls-1" d="M10.54,329.06v-9.81l35-1.86v4.65l-35-16.92v-11.28l35-2.44v4.71l-35-16.34v-10.41l39,19.56v11.46l-34,2.48v-4.39l34,16.62v11.38l-39,2.58Z"/>
      <path class="cls-1" d="M10.54,262.47v-28.5l9,1.86v18.35l7,1.51v-17.58l8,1.64v17.63l7,1.48v-18.24l8,1.65v28.29l-39-8.09Z"/>
      <path class="cls-1" d="M47.78,227.75c-1.95,3.05-4.81,4.71-8.6,4.98l-2.03-10.3c1.54-.31,2.75-1.07,3.62-2.29.87-1.22,1.3-2.87,1.3-4.95,0-1.35-.14-2.5-.41-3.44-.27-.95-.67-1.67-1.19-2.17-.52-.5-1.19-.75-2-.75-.73,0-1.33.34-1.79,1.01-.46.68-.91,1.88-1.33,3.62l-1.33,5.27c-.81,3.24-2.06,5.67-3.76,7.29-1.7,1.62-4.05,2.43-7.06,2.43-2.39,0-4.57-.62-6.54-1.85-1.97-1.23-3.54-3.1-4.72-5.59-1.18-2.49-1.77-5.51-1.77-9.06,0-5.02.98-8.98,2.95-11.9,1.97-2.91,4.83-4.47,8.57-4.66l1.62,10.31c-1.47.23-2.59.87-3.36,1.91-.77,1.04-1.16,2.55-1.16,4.52,0,1.12.12,2.12.35,3.01.23.89.59,1.58,1.07,2.08.48.5,1.09.75,1.82.75s1.32-.3,1.77-.9c.44-.6.88-1.73,1.3-3.39l1.39-5.44c.85-3.24,2.12-5.71,3.82-7.41s4.05-2.55,7.06-2.55c2.47,0,4.71.65,6.71,1.94,2.01,1.29,3.61,3.22,4.81,5.79,1.2,2.57,1.79,5.68,1.79,9.35,0,5.21-.97,9.34-2.92,12.39Z"/>
      <path class="cls-1" d="M10.54,184.43v-9.92l15,3.16v-15.18l-15-3.16v-9.81l39,8.14v10.41l-14-2.91v13.95l14,2.91v10.55l-39-8.14Z"/>
      <path class="cls-1" d="M10.54,128.89v-13.13l39-5.56v10.24l-33,4.01v-2.15l33,17.8v10.64l-39-21.85ZM32.54,138.56v-22.9l9,1.96v22.9l-9-1.96Z"/>
      <path class="cls-1" d="M10.54,95.21v-15.45c0-4.79.92-8.46,2.77-10.99,1.85-2.53,4.76-3.8,8.72-3.8,2.87,0,5.47.69,7.81,2.06,2.34,1.38,4.21,3.43,5.6,6.16,1.4,2.73,2.09,6.02,2.09,9.87v7.86l12,2.49v10.01l-39-8.2ZM27.05,77.49c-1-1.11-2.3-1.67-3.89-1.67-1.22,0-2.13.37-2.72,1.11-.59.74-.89,1.91-.89,3.5v6.44l9,1.89v-6.22c0-2.26-.5-3.94-1.5-5.06ZM33.54,86.16v-10.2l17-6.68v10.83l-17,6.05Z"/>
      <path class="cls-1" d="M10.54,53.18v-10.11l15,3.13v-4.69l-15-11.75v-12.45l21.54,18.29h-4.56l22.02-10.54v11.46l-15,6.43v5.15l15,3.18v10.03l-39-8.14Z"/>
    </g>
  </g>
  <path class="cls-3" d="M0,6.54c0-1.16.29-2.25.87-3.26.58-1.01,1.38-1.81,2.39-2.4C4.27.29,5.36,0,6.52,0c1.16,0,2.24.29,3.25.87,1.01.58,1.81,1.38,2.39,2.39s.88,2.09.88,3.25c0,1.16-.29,2.24-.87,3.25-.58,1.01-1.38,1.81-2.39,2.4-1.01.59-2.09.88-3.25.88-1.16,0-2.25-.29-3.26-.87-1.01-.58-1.81-1.38-2.4-2.39C.29,8.79,0,7.7,0,6.54ZM12.06,6.52c0-1.51-.55-2.81-1.64-3.9-1.09-1.09-2.39-1.64-3.9-1.63-.98,0-1.91.25-2.77.75-.86.5-1.54,1.18-2.03,2.04-.5.86-.74,1.78-.74,2.77,0,1.52.55,2.83,1.64,3.91,1.09,1.09,2.4,1.63,3.91,1.63,1.51,0,2.81-.55,3.9-1.65,1.09-1.09,1.63-2.4,1.63-3.91ZM7.79,3.36c.82.21,1.43.58,1.83,1.11.4.53.61,1.15.61,1.88,0,1.2-.37,2.07-1.12,2.61-.75.54-1.64.81-2.68.81-1.16,0-2.06-.31-2.72-.95-.66-.64-.98-1.46-.99-2.46,0-.7.18-1.31.54-1.81.36-.5.89-.85,1.58-1.05l.22.94c-.51.16-.89.41-1.14.73-.26.32-.38.72-.38,1.2,0,.8.26,1.4.78,1.81.52.41,1.22.61,2.09.61,1.03,0,1.79-.22,2.27-.65.48-.43.72-.99.72-1.68,0-.56-.15-1.02-.46-1.38-.31-.36-.77-.61-1.38-.76l.23-.95Z"/>
</svg>